<svg width="85" height="84" viewBox="0 0 85 84" fill="none" xmlns="http://www.w3.org/2000/svg">
<path fill-rule="evenodd" clip-rule="evenodd" d="M42.4619 84C65.6579 84 84.4619 65.196 84.4619 42C84.4619 18.804 65.6579 0 42.4619 0C19.266 0 0.461914 18.804 0.461914 42C0.461914 65.196 19.266 84 42.4619 84ZM42.4622 77.6205C62.1347 77.6205 78.0824 61.6728 78.0824 42.0003C78.0824 22.3277 62.1347 6.37998 42.4622 6.37998C22.7896 6.37998 6.84191 22.3277 6.84191 42.0003C6.84191 61.6728 22.7896 77.6205 42.4622 77.6205Z" fill="black"/>
<path fill-rule="evenodd" clip-rule="evenodd" d="M55.9007 54.1124L30.0002 20.7693L48.0953 58.0236L32.892 63.2661L50.8445 63.6837L58.436 79.313L70.1541 72.4616L59.2216 58.3876L67.8463 44.7696L55.9007 54.1124Z" fill="black"/>
</svg>
