<svg width="517" height="84" viewBox="0 0 517 84" fill="none" xmlns="http://www.w3.org/2000/svg">
<path fill-rule="evenodd" clip-rule="evenodd" d="M42.4619 84C65.6579 84 84.4619 65.196 84.4619 42C84.4619 18.804 65.6579 0 42.4619 0C19.266 0 0.461914 18.804 0.461914 42C0.461914 65.196 19.266 84 42.4619 84ZM42.4622 77.6205C62.1347 77.6205 78.0824 61.6728 78.0824 42.0003C78.0824 22.3277 62.1347 6.37998 42.4622 6.37998C22.7896 6.37998 6.84191 22.3277 6.84191 42.0003C6.84191 61.6728 22.7896 77.6205 42.4622 77.6205Z" fill="black"/>
<path fill-rule="evenodd" clip-rule="evenodd" d="M55.9007 54.1124L30.0002 20.7693L48.0953 58.0236L32.892 63.2661L50.8445 63.6837L58.436 79.313L70.1541 72.4616L59.2216 58.3876L67.8463 44.7696L55.9007 54.1124Z" fill="black"/>
<path d="M506.821 31.3994C507.043 31.3994 507.403 31.3994 507.901 31.3994C510.67 31.3994 513.494 32.2024 516.374 33.8084C516.374 33.8084 516.374 33.8361 516.374 33.8915C515.266 39.1526 514.63 41.8939 514.463 42.1154C511.805 40.3986 509.452 39.5402 507.403 39.5402C507.292 39.5402 507.07 39.5402 506.738 39.5402C504.08 39.5402 501.754 40.5094 499.76 42.4477C498.209 44.2752 497.434 47.7918 497.434 52.9975C497.434 57.0402 497.434 63.132 497.434 71.2728C497.434 71.2728 497.434 71.3282 497.434 71.439C496.105 71.439 493.502 71.439 489.626 71.439C489.626 71.3836 489.57 71.3282 489.459 71.2728C489.459 64.7934 489.459 51.7792 489.459 32.2301C489.515 32.2301 489.57 32.2301 489.626 32.2301C490.899 32.2301 493.502 32.2301 497.434 32.2301C497.434 32.7285 497.434 33.7254 497.434 35.2206C500.535 32.6731 503.664 31.3994 506.821 31.3994Z" fill="black"/>
<path d="M476.417 31.6499C476.417 38.2955 476.417 51.559 476.417 71.4403C476.417 71.4403 476.389 71.4403 476.334 71.4403C475.005 71.4403 472.347 71.4403 468.359 71.4403C468.359 64.7947 468.359 51.5313 468.359 31.6499C469.688 31.6499 472.374 31.6499 476.417 31.6499ZM472.264 10.6333C472.319 10.6333 472.43 10.6333 472.596 10.6333C473.759 10.6333 474.894 11.104 476.002 12.0455C477.054 13.1531 477.58 14.3714 477.58 15.7005C477.58 15.7559 477.58 15.839 477.58 15.9498C477.58 17.2235 477.137 18.4142 476.251 19.5218C475.143 20.574 473.897 21.1001 472.513 21.1001C472.457 21.1001 472.374 21.1001 472.264 21.1001C470.99 21.1001 469.827 20.6017 468.775 19.6048C468.221 18.9956 467.833 18.4695 467.612 18.0265C467.335 17.3066 467.196 16.642 467.196 16.0328C467.196 15.9774 467.196 15.8667 467.196 15.7005C467.196 14.4268 467.695 13.2361 468.692 12.1286C468.802 12.0178 468.996 11.8517 469.273 11.6301C470.27 10.9656 471.267 10.6333 472.264 10.6333Z" fill="black"/>
<path d="M387.617 31.6497C387.672 31.6497 387.81 31.6497 388.032 31.6497C395.176 31.6497 400.298 34.3633 403.4 39.7905C404.452 41.8949 404.978 44.387 404.978 47.2668C404.978 52.5832 404.978 60.6133 404.978 71.357C404.978 71.357 404.95 71.3846 404.895 71.44C403.621 71.44 401.018 71.44 397.086 71.44C397.086 71.44 397.059 71.4123 397.003 71.357C397.003 67.3142 397.003 59.2565 397.003 47.1837C397.003 43.8055 395.591 41.5626 392.767 40.455C391.548 39.9012 389.998 39.6243 388.115 39.6243C388.004 39.6243 387.783 39.6243 387.45 39.6243C384.128 39.6243 381.746 40.1505 380.306 41.2027C378.479 42.3103 377.565 44.387 377.565 47.4329C377.565 52.7493 377.565 60.724 377.565 71.357C377.565 71.357 377.537 71.3846 377.482 71.44C376.153 71.44 373.55 71.44 369.673 71.44C369.673 71.44 369.618 71.4123 369.507 71.357C369.507 64.7668 369.507 51.6418 369.507 31.9819C369.563 31.9819 369.618 31.9542 369.673 31.8989C370.947 31.8989 373.55 31.8989 377.482 31.8989C377.482 31.8989 377.51 31.9266 377.565 31.9819C377.565 32.3696 377.565 33.1172 377.565 34.2248C379.005 33.4495 380.86 32.7296 383.131 32.065C384.349 31.7881 385.844 31.6497 387.617 31.6497Z" fill="black"/>
<path d="M337.11 30.9841C341.707 30.9841 345.639 32.7563 348.906 36.3006C348.906 35.3038 348.906 33.7808 348.906 31.7318C348.961 31.7318 349.017 31.7041 349.072 31.6487C350.401 31.6487 353.004 31.6487 356.881 31.6487C356.936 31.6487 356.991 31.6764 357.047 31.7318C357.047 38.322 357.047 51.53 357.047 71.356C356.991 71.356 356.936 71.3837 356.881 71.4391C355.607 71.4391 353.004 71.4391 349.072 71.4391C349.072 71.4391 349.017 71.4114 348.906 71.356C348.906 70.6914 348.906 69.3623 348.906 67.3686C345.805 70.7468 341.817 72.4359 336.944 72.4359C330.908 72.4359 325.757 69.9992 321.493 65.1258C318.336 61.1384 316.758 56.6803 316.758 51.7515C316.758 45.6044 319.112 40.3156 323.819 35.8852C327.696 32.6178 332.126 30.9841 337.11 30.9841ZM324.816 51.7515C324.816 56.0712 326.699 59.6432 330.465 62.4675C332.514 63.7413 334.507 64.3781 336.446 64.3781C336.612 64.3781 336.889 64.3781 337.276 64.3781C339.934 64.3781 342.537 63.2982 345.085 61.1384C347.632 58.4802 348.906 55.3512 348.906 51.7515C348.906 47.3212 347.023 43.7215 343.257 40.9525C341.208 39.7341 339.187 39.125 337.193 39.125C337.027 39.125 336.806 39.125 336.529 39.125C333.206 39.125 330.188 40.6479 327.474 43.6938C325.702 46.2413 324.816 48.9272 324.816 51.7515Z" fill="black"/>
<path d="M435.497 30.8346C440.094 30.8346 444.026 32.6068 447.293 36.1511C447.293 35.1542 447.293 13.4288 447.293 11.3797C447.349 11.3797 447.404 11.352 447.459 11.2966C448.788 11.2966 451.391 11.2966 455.268 11.2966C455.323 11.2966 455.379 11.3243 455.434 11.3797C455.434 17.9699 455.434 51.3805 455.434 71.2065C455.379 71.2065 455.323 71.2342 455.268 71.2895C453.994 71.2895 451.391 71.2895 447.459 71.2895C447.459 71.2895 447.404 71.2619 447.293 71.2065C447.293 70.5419 447.293 69.2128 447.293 67.2191C444.192 70.5973 440.205 72.2864 435.331 72.2864C429.295 72.2864 424.144 69.8497 419.88 64.9762C416.724 60.9889 415.145 56.5308 415.145 51.602C415.145 45.4549 417.499 40.1661 422.206 35.7357C426.083 32.4683 430.513 30.8346 435.497 30.8346ZM423.203 51.602C423.203 55.9217 425.086 59.4936 428.852 62.318C430.901 63.5918 432.894 64.2286 434.833 64.2286C434.999 64.2286 435.276 64.2286 435.663 64.2286C438.322 64.2286 440.925 63.1487 443.472 60.9889C446.019 58.3307 447.293 55.2017 447.293 51.602C447.293 47.1716 445.41 43.572 441.644 40.803C439.595 39.5846 437.574 38.9754 435.58 38.9754C435.414 38.9754 435.193 38.9754 434.916 38.9754C431.593 38.9754 428.575 40.4984 425.861 43.5443C424.089 46.0917 423.203 48.7777 423.203 51.602Z" fill="black"/>
<path d="M301.888 31.3994C302.11 31.3994 302.47 31.3994 302.968 31.3994C305.737 31.3994 308.562 32.2024 311.441 33.8084C311.441 33.8084 311.441 33.8361 311.441 33.8915C310.334 39.1526 309.697 41.8939 309.531 42.1154C306.873 40.3986 304.519 39.5402 302.47 39.5402C302.359 39.5402 302.138 39.5402 301.805 39.5402C299.147 39.5402 296.821 40.5094 294.827 42.4477C293.277 44.2752 292.502 47.7918 292.502 52.9975C292.502 57.0402 292.502 63.132 292.502 71.2728C292.502 71.2728 292.502 71.3282 292.502 71.439C291.172 71.439 288.57 71.439 284.693 71.439C284.693 71.3836 284.638 71.3282 284.527 71.2728C284.527 64.7934 284.527 51.7792 284.527 32.2301C284.582 32.2301 284.638 32.2301 284.693 32.2301C285.967 32.2301 288.57 32.2301 292.502 32.2301C292.502 32.7285 292.502 33.7254 292.502 35.2206C295.603 32.6731 298.732 31.3994 301.888 31.3994Z" fill="black"/>
<path d="M236.596 10.6333C237.981 10.6333 240.667 10.6333 244.654 10.6333C244.654 14.5653 244.654 22.4292 244.654 34.2251C246.094 33.4498 247.949 32.7298 250.22 32.0653C251.438 31.7884 252.933 31.6499 254.705 31.6499C254.816 31.6499 254.955 31.6499 255.121 31.6499C262.265 31.6499 267.387 34.3635 270.489 39.7907C271.541 41.8952 272.067 44.3873 272.067 47.267C272.067 52.5835 272.067 60.6135 272.067 71.3572C272.067 71.3572 272.039 71.3849 271.984 71.4403C270.71 71.4403 268.107 71.4403 264.175 71.4403C264.175 71.4403 264.148 71.4126 264.092 71.3572C264.092 67.3145 264.092 59.2567 264.092 47.1839C264.092 43.8058 262.68 41.5629 259.856 40.4553C258.637 39.9015 257.087 39.6246 255.204 39.6246C255.093 39.6246 254.872 39.6246 254.539 39.6246C251.216 39.6246 248.835 40.1507 247.395 41.2029C245.568 42.3105 244.654 44.3873 244.654 47.4332C244.654 52.7496 244.654 60.752 244.654 71.4403C243.325 71.4403 240.639 71.4403 236.596 71.4403C236.596 61.3058 236.596 41.0368 236.596 10.6333Z" fill="black"/>
<path d="M207.77 10.6333C209.099 10.6333 211.758 10.6333 215.745 10.6333C215.745 14.1222 215.745 21.1001 215.745 31.5669C217.462 31.5669 220.895 31.5669 226.046 31.5669C226.101 31.6222 226.129 31.6499 226.129 31.6499C226.129 32.979 226.129 35.6373 226.129 39.6246C226.129 39.6246 226.101 39.6246 226.046 39.6246C224.329 39.6246 220.895 39.6246 215.745 39.6246C215.745 43.0028 215.745 49.7037 215.745 59.7275C215.745 61.2781 216.299 62.3026 217.406 62.801C218.071 63.2441 218.819 63.4656 219.649 63.4656C220.701 63.4656 222.224 63.1056 224.218 62.3857C224.273 62.3303 224.384 62.2472 224.55 62.1365C225.049 63.4102 226.046 65.93 227.541 69.6958C226.876 69.9727 225.796 70.3327 224.301 70.7757C222.529 71.2188 220.978 71.4403 219.649 71.4403C219.649 71.4403 219.622 71.4403 219.566 71.4403C216.963 71.4403 214.499 70.6373 212.173 69.0313C211.785 68.7544 211.287 68.3113 210.678 67.7022C210.512 67.4806 210.262 67.176 209.93 66.7884C209.487 66.1792 209.127 65.6254 208.85 65.127C208.13 63.4102 207.77 61.7211 207.77 60.0597C207.77 55.5186 207.77 48.7069 207.77 39.6246C206.773 39.6246 204.808 39.6246 201.872 39.6246C201.872 39.6246 201.845 39.6246 201.789 39.6246C201.789 38.2955 201.789 35.6373 201.789 31.6499C201.845 31.6499 201.872 31.6222 201.872 31.5669C202.869 31.5669 204.835 31.5669 207.77 31.5669C207.77 28.0779 207.77 21.1001 207.77 10.6333Z" fill="black"/>
<path d="M193.732 31.6499C193.732 38.2955 193.732 51.559 193.732 71.4403C193.732 71.4403 193.705 71.4403 193.649 71.4403C192.32 71.4403 189.662 71.4403 185.674 71.4403C185.674 64.7947 185.674 51.5313 185.674 31.6499C187.004 31.6499 189.689 31.6499 193.732 31.6499ZM189.579 10.6333C189.634 10.6333 189.745 10.6333 189.911 10.6333C191.074 10.6333 192.209 11.104 193.317 12.0455C194.369 13.1531 194.895 14.3714 194.895 15.7005C194.895 15.7559 194.895 15.839 194.895 15.9498C194.895 17.2235 194.452 18.4142 193.566 19.5218C192.458 20.574 191.212 21.1001 189.828 21.1001C189.773 21.1001 189.689 21.1001 189.579 21.1001C188.305 21.1001 187.142 20.6017 186.09 19.6048C185.536 18.9956 185.148 18.4695 184.927 18.0265C184.65 17.3066 184.511 16.642 184.511 16.0328C184.511 15.9774 184.511 15.8667 184.511 15.7005C184.511 14.4268 185.01 13.2361 186.007 12.1286C186.117 12.0178 186.311 11.8517 186.588 11.6301C187.585 10.9656 188.582 10.6333 189.579 10.6333Z" fill="black"/>
<path d="M128.023 31.6497C128.079 31.6497 128.217 31.6497 128.439 31.6497C133.811 31.6497 138.13 33.2834 141.398 36.5508C144.554 33.2834 148.902 31.6497 154.44 31.6497C154.717 31.6497 155.16 31.6497 155.769 31.6497C163.079 31.6497 168.257 34.391 171.303 39.8736C172.244 42.0887 172.715 44.2209 172.715 46.2699C172.715 51.8633 172.715 60.2256 172.715 71.357C172.715 71.357 172.715 71.3846 172.715 71.44C171.386 71.44 168.755 71.44 164.823 71.44C164.823 71.44 164.796 71.4123 164.74 71.357C164.74 67.2035 164.74 58.8965 164.74 46.4361C164.74 43.3902 163.079 41.3134 159.756 40.2058C158.759 39.8182 157.458 39.6243 155.852 39.6243C155.52 39.6243 154.993 39.6243 154.273 39.6243C149.954 39.6243 147.157 41.0642 145.883 43.944C145.551 44.7747 145.385 45.6607 145.385 46.6022C145.385 52.0848 145.385 60.3364 145.385 71.357C145.385 71.357 145.357 71.3846 145.302 71.44C144.028 71.44 141.425 71.44 137.493 71.44C137.493 71.44 137.466 71.4123 137.41 71.357C137.41 67.3142 137.41 59.2842 137.41 47.2668C137.41 44.3316 136.441 42.3103 134.503 41.2027C133.063 40.1505 131.069 39.6243 128.522 39.6243C128.411 39.6243 128.19 39.6243 127.857 39.6243C124.535 39.6243 122.153 40.1505 120.713 41.2027C118.886 42.3103 117.972 44.387 117.972 47.4329C117.972 52.7493 117.972 60.724 117.972 71.357C117.972 71.357 117.944 71.3846 117.889 71.44C116.56 71.44 113.957 71.44 110.08 71.44C110.08 71.44 110.025 71.4123 109.914 71.357C109.914 64.7668 109.914 51.6418 109.914 31.9819C109.97 31.9819 110.025 31.9542 110.08 31.8989C111.354 31.8989 113.957 31.8989 117.889 31.8989C117.889 31.8989 117.917 31.9266 117.972 31.9819C117.972 32.3696 117.972 33.1172 117.972 34.2248C119.412 33.4495 121.267 32.7296 123.538 32.065C124.756 31.7881 126.251 31.6497 128.023 31.6497Z" fill="black"/>
</svg>
